<svg width="86" height="85" viewBox="0 0 86 85" fill="none" xmlns="http://www.w3.org/2000/svg">
<path d="M85.8333 42.5C85.8333 65.9721 66.8054 85 43.3333 85C19.8612 85 0.833252 65.9721 0.833252 42.5C0.833252 19.0279 19.8612 0 43.3333 0C66.8054 0 85.8333 19.0279 85.8333 42.5Z" fill="url(#paint0_linear_5_584)" fill-opacity="0.75"/>
<path fill-rule="evenodd" clip-rule="evenodd" d="M54.4999 32C55.826 32 57.0978 32.5268 58.0355 33.4645C58.9731 34.4021 59.4999 35.6739 59.4999 37V47C59.4999 48.3261 58.9731 49.5979 58.0355 50.5355C57.0978 51.4732 55.826 52 54.4999 52H31.1666C29.8405 52 28.5687 51.4732 27.6311 50.5355C26.6934 49.5979 26.1666 48.3261 26.1666 47V37C26.1666 35.6739 26.6934 34.4021 27.6311 33.4645C28.5687 32.5268 29.8405 32 31.1666 32H54.4999ZM54.4999 45.3333H31.1666C30.7584 45.3334 30.3644 45.4833 30.0593 45.7545C29.7542 46.0258 29.5593 46.3996 29.5116 46.805L29.4999 47V48.6667H56.1666V47C56.1665 46.5918 56.0167 46.1978 55.7454 45.8927C55.4741 45.5877 55.1003 45.3928 54.6949 45.345L54.4999 45.3333ZM52.8333 37C52.3912 37 51.9673 37.1756 51.6547 37.4882C51.3422 37.8007 51.1666 38.2246 51.1666 38.6667C51.1666 39.1087 51.3422 39.5326 51.6547 39.8452C51.9673 40.1577 52.3912 40.3333 52.8333 40.3333C53.2753 40.3333 53.6992 40.1577 54.0118 39.8452C54.3243 39.5326 54.4999 39.1087 54.4999 38.6667C54.4999 38.2246 54.3243 37.8007 54.0118 37.4882C53.6992 37.1756 53.2753 37 52.8333 37Z" fill="black"/>
<defs>
<linearGradient id="paint0_linear_5_584" x1="0.833253" y1="2.23684" x2="74.8616" y2="91.3416" gradientUnits="userSpaceOnUse">
<stop stop-color="white" stop-opacity="0.7"/>
<stop offset="1" stop-color="white" stop-opacity="0.24"/>
</linearGradient>
</defs>
</svg>
