<svg width="86" height="85" viewBox="0 0 86 85" fill="none" xmlns="http://www.w3.org/2000/svg">
<path d="M85.1666 42.5C85.1666 65.9721 66.1387 85 42.6666 85C19.1945 85 0.166626 65.9721 0.166626 42.5C0.166626 19.0279 19.1945 0 42.6666 0C66.1387 0 85.1666 19.0279 85.1666 42.5Z" fill="url(#paint0_linear_5_578)" fill-opacity="0.75"/>
<path d="M43.1666 38C42.3787 38 41.5985 38.1552 40.8705 38.4567C40.1426 38.7583 39.4811 39.2002 38.924 39.7574C38.3668 40.3145 37.9249 40.9759 37.6233 41.7039C37.3218 42.4319 37.1666 43.2121 37.1666 44C37.1666 44.7879 37.3218 45.5681 37.6233 46.2961C37.9249 47.0241 38.3668 47.6855 38.924 48.2426C39.4811 48.7998 40.1426 49.2417 40.8705 49.5433C41.5985 49.8448 42.3787 50 43.1666 50C44.7579 50 46.284 49.3679 47.4093 48.2426C48.5345 47.1174 49.1666 45.5913 49.1666 44C49.1666 42.4087 48.5345 40.8826 47.4093 39.7574C46.284 38.6321 44.7579 38 43.1666 38ZM59.1666 32H54.3666C54.0212 31.9842 53.6878 31.868 53.4075 31.6655C53.1272 31.463 52.9121 31.183 52.7886 30.86L51.5466 27.138C51.4223 26.8153 51.2066 26.5359 50.926 26.3338C50.6454 26.1317 50.3121 26.0157 49.9666 26H36.3666C35.7066 26 34.9946 26.512 34.7886 27.136L33.5446 30.86C33.4209 31.1829 33.2058 31.4627 32.9255 31.6651C32.6452 31.8676 32.312 31.984 31.9666 32H27.1666C24.9666 32 23.1666 33.8 23.1666 36V54C23.1666 56.2 24.9666 58 27.1666 58H59.1666C61.3666 58 63.1666 56.2 63.1666 54V36C63.1666 33.8 61.3666 32 59.1666 32ZM43.1666 54C40.5145 54 37.9709 52.9464 36.0956 51.0711C34.2202 49.1957 33.1666 46.6522 33.1666 44C33.1666 41.3478 34.2202 38.8043 36.0956 36.9289C37.9709 35.0536 40.5145 34 43.1666 34C45.8188 34 48.3623 35.0536 50.2377 36.9289C52.1131 38.8043 53.1666 41.3478 53.1666 44C53.1666 46.6522 52.1131 49.1957 50.2377 51.0711C48.3623 52.9464 45.8188 54 43.1666 54ZM58.1666 38.4C57.7953 38.4 57.4392 38.2525 57.1767 37.9899C56.9141 37.7274 56.7666 37.3713 56.7666 37C56.7666 36.6287 56.9141 36.2726 57.1767 36.0101C57.4392 35.7475 57.7953 35.6 58.1666 35.6C58.5379 35.6 58.894 35.7475 59.1566 36.0101C59.4191 36.2726 59.5666 36.6287 59.5666 37C59.5666 37.3713 59.4191 37.7274 59.1566 37.9899C58.894 38.2525 58.5379 38.4 58.1666 38.4Z" fill="black"/>
<defs>
<linearGradient id="paint0_linear_5_578" x1="0.166627" y1="2.23684" x2="74.195" y2="91.3416" gradientUnits="userSpaceOnUse">
<stop stop-color="white" stop-opacity="0.7"/>
<stop offset="1" stop-color="white" stop-opacity="0.24"/>
</linearGradient>
</defs>
</svg>
