<svg width="86" height="85" viewBox="0 0 86 85" fill="none" xmlns="http://www.w3.org/2000/svg">
<path d="M85.5 42.5C85.5 65.9721 66.4721 85 43 85C19.5279 85 0.5 65.9721 0.5 42.5C0.5 19.0279 19.5279 0 43 0C66.4721 0 85.5 19.0279 85.5 42.5Z" fill="url(#paint0_linear_5_572)" fill-opacity="0.75"/>
<path d="M30.1702 50.4959C29.4035 50.4959 28.7635 50.2387 28.2502 49.7243C27.7357 49.2109 27.4785 48.5704 27.4785 47.8026V31.5193C27.4785 30.7526 27.7357 30.1126 28.2502 29.5993C28.7646 29.0859 29.4046 28.8293 30.1702 28.8293H54.7868C55.5535 28.8293 56.1935 29.0859 56.7068 29.5993C57.2213 30.1137 57.4785 30.7543 57.4785 31.5209V47.8043C57.4785 48.5709 57.2218 49.2109 56.7085 49.7243C56.1952 50.2376 55.5546 50.4948 54.7868 50.4959H30.1702ZM25.4268 53.8293V52.1626H59.5302V53.8293H25.4268Z" fill="black"/>
<defs>
<linearGradient id="paint0_linear_5_572" x1="0.500001" y1="2.23684" x2="74.5284" y2="91.3416" gradientUnits="userSpaceOnUse">
<stop stop-color="white" stop-opacity="0.7"/>
<stop offset="1" stop-color="white" stop-opacity="0.24"/>
</linearGradient>
</defs>
</svg>
