<svg width="86" height="85" viewBox="0 0 86 85" fill="none" xmlns="http://www.w3.org/2000/svg">
<path d="M85.8333 42.5C85.8333 65.9721 66.8054 85 43.3333 85C19.8612 85 0.833313 65.9721 0.833313 42.5C0.833313 19.0279 19.8612 0 43.3333 0C66.8054 0 85.8333 19.0279 85.8333 42.5Z" fill="url(#paint0_linear_5_575)" fill-opacity="0.75"/>
<path d="M52.0833 22H34.5833C32.513 22 30.8333 23.6797 30.8333 25.75V58.25C30.8333 60.3203 32.513 62 34.5833 62H52.0833C54.1536 62 55.8333 60.3203 55.8333 58.25V25.75C55.8333 23.6797 54.1536 22 52.0833 22ZM43.3333 59.5C41.9505 59.5 40.8333 58.3828 40.8333 57C40.8333 55.6172 41.9505 54.5 43.3333 54.5C44.7161 54.5 45.8333 55.6172 45.8333 57C45.8333 58.3828 44.7161 59.5 43.3333 59.5Z" fill="black"/>
<defs>
<linearGradient id="paint0_linear_5_575" x1="0.833314" y1="2.23684" x2="74.8617" y2="91.3416" gradientUnits="userSpaceOnUse">
<stop stop-color="white" stop-opacity="0.7"/>
<stop offset="1" stop-color="white" stop-opacity="0.24"/>
</linearGradient>
</defs>
</svg>
