<svg width="86" height="85" viewBox="0 0 86 85" fill="none" xmlns="http://www.w3.org/2000/svg">
<path d="M85.1666 42.5C85.1666 65.9721 66.1387 85 42.6666 85C19.1945 85 0.166565 65.9721 0.166565 42.5C0.166565 19.0279 19.1945 0 42.6666 0C66.1387 0 85.1666 19.0279 85.1666 42.5Z" fill="url(#paint0_linear_5_587)" fill-opacity="0.75"/>
<path d="M43.1666 52C45.928 52 48.1666 49.7614 48.1666 47C48.1666 44.2386 45.928 42 43.1666 42C40.4051 42 38.1666 44.2386 38.1666 47C38.1666 49.7614 40.4051 52 43.1666 52Z" fill="black"/>
<path d="M53.1666 25.3333H33.1666C32.2825 25.3333 31.4347 25.6845 30.8095 26.3096C30.1844 26.9348 29.8332 27.7826 29.8332 28.6667V55.3333C29.8332 56.2174 30.1844 57.0652 30.8095 57.6904C31.4347 58.3155 32.2825 58.6667 33.1666 58.6667H53.1666C54.0506 58.6667 54.8985 58.3155 55.5236 57.6904C56.1487 57.0652 56.4999 56.2174 56.4999 55.3333V28.6667C56.4999 27.7826 56.1487 26.9348 55.5236 26.3096C54.8985 25.6845 54.0506 25.3333 53.1666 25.3333ZM43.1666 28.6667C43.8258 28.6667 44.4703 28.8622 45.0185 29.2284C45.5666 29.5947 45.9939 30.1153 46.2462 30.7244C46.4985 31.3335 46.5645 32.0037 46.4359 32.6503C46.3072 33.2969 45.9898 33.8908 45.5236 34.357C45.0574 34.8232 44.4635 35.1407 43.8169 35.2693C43.1703 35.3979 42.5 35.3319 41.891 35.0796C41.2819 34.8273 40.7613 34.4001 40.395 33.8519C40.0287 33.3037 39.8332 32.6593 39.8332 32C39.8332 31.1159 40.1844 30.2681 40.8095 29.643C41.4347 29.0179 42.2825 28.6667 43.1666 28.6667ZM43.1666 55.3333C41.5184 55.3333 39.9072 54.8446 38.5368 53.9289C37.1664 53.0132 36.0983 51.7117 35.4676 50.189C34.8368 48.6663 34.6718 46.9908 34.9934 45.3742C35.3149 43.7577 36.1086 42.2729 37.274 41.1074C38.4394 39.942 39.9243 39.1483 41.5408 38.8268C43.1573 38.5052 44.8329 38.6703 46.3556 39.301C47.8783 39.9317 49.1798 40.9998 50.0955 42.3702C51.0112 43.7407 51.4999 45.3518 51.4999 47C51.4999 49.2101 50.6219 51.3298 49.0591 52.8926C47.4963 54.4554 45.3767 55.3333 43.1666 55.3333Z" fill="black"/>
<defs>
<linearGradient id="paint0_linear_5_587" x1="0.166566" y1="2.23684" x2="74.1949" y2="91.3416" gradientUnits="userSpaceOnUse">
<stop stop-color="white" stop-opacity="0.7"/>
<stop offset="1" stop-color="white" stop-opacity="0.24"/>
</linearGradient>
</defs>
</svg>
