<svg width="86" height="85" viewBox="0 0 86 85" fill="none" xmlns="http://www.w3.org/2000/svg">
<path d="M85.4999 42.5C85.4999 65.9721 66.472 85 42.9999 85C19.5278 85 0.499878 65.9721 0.499878 42.5C0.499878 19.0279 19.5278 0 42.9999 0C66.472 0 85.4999 19.0279 85.4999 42.5Z" fill="url(#paint0_linear_5_590)" fill-opacity="0.75"/>
<path d="M52.8999 27C49.6668 28.5818 46.1261 29.4352 42.5274 29.5C38.8573 29.4341 35.2471 28.5582 31.9549 26.935C25.4274 27 22.5024 29.925 22.5024 36.6V51.6C22.5221 53.039 23.1076 54.4124 24.1322 55.423C25.1569 56.4336 26.5382 57.0001 27.9774 57H28.5574C29.7011 57.0003 30.8162 56.6424 31.7462 55.9766C32.6761 55.3107 33.3742 54.3704 33.7424 53.2875C34.5049 51 36.6049 47 38.9549 47H46.0549C48.4049 47 50.5049 51 51.2549 53.25C51.6185 54.3407 52.3157 55.2895 53.2479 55.9624C54.1801 56.6353 55.3002 56.9982 56.4499 57H57.0299C60.0549 57 62.5049 54.55 62.5049 51.525V36.525C62.5049 29.925 59.5799 27 52.9049 27H52.8999ZM34.9999 39.5H32.4999V42H29.9999V39.5H27.4999V37H29.9999V34.5H32.4999V37H34.9999V39.5ZM47.6499 42.275C47.3017 42.2748 46.957 42.2061 46.6354 42.0727C46.3138 41.9393 46.0216 41.7439 45.7755 41.4976C45.5294 41.2513 45.3343 40.9589 45.2012 40.6372C45.0681 40.3155 44.9997 39.9707 44.9999 39.6225C45 39.2743 45.0688 38.9296 45.2022 38.608C45.3356 38.2864 45.531 37.9942 45.7773 37.7481C46.0236 37.5021 46.316 37.3069 46.6377 37.1738C46.9594 37.0407 47.3042 36.9723 47.6524 36.9725C48.3555 36.9728 49.0298 37.2525 49.5267 37.7499C50.0237 38.2474 50.3027 38.9218 50.3024 39.625C50.302 40.3282 50.0224 41.0024 49.525 41.4994C49.0275 41.9963 48.353 42.2753 47.6499 42.275ZM54.9999 42C54.3368 42 53.701 41.7366 53.2321 41.2678C52.7633 40.7989 52.4999 40.163 52.4999 39.5C52.4999 38.837 52.7633 38.2011 53.2321 37.7322C53.701 37.2634 54.3368 37 54.9999 37C55.6629 37 56.2988 37.2634 56.7676 37.7322C57.2365 38.2011 57.4999 38.837 57.4999 39.5C57.4999 40.163 57.2365 40.7989 56.7676 41.2678C56.2988 41.7366 55.6629 42 54.9999 42Z" fill="black"/>
<defs>
<linearGradient id="paint0_linear_5_590" x1="0.499879" y1="2.23684" x2="74.5283" y2="91.3416" gradientUnits="userSpaceOnUse">
<stop stop-color="white" stop-opacity="0.7"/>
<stop offset="1" stop-color="white" stop-opacity="0.24"/>
</linearGradient>
</defs>
</svg>
