<svg width="21" height="17" viewBox="0 0 21 17" fill="none" xmlns="http://www.w3.org/2000/svg">
<path d="M2.83335 16.1668C2.30627 16.1668 1.85521 15.9793 1.48019 15.6043C1.10516 15.2293 0.917326 14.7779 0.916687 14.2502V2.75016C0.916687 2.22308 1.10452 1.77202 1.48019 1.397C1.85585 1.02197 2.30691 0.834135 2.83335 0.833496H18.1667C18.6938 0.833496 19.1451 1.02133 19.5208 1.397C19.8965 1.77266 20.084 2.22372 20.0834 2.75016V14.2502C20.0834 14.7772 19.8958 15.2286 19.5208 15.6043C19.1458 15.98 18.6944 16.1675 18.1667 16.1668H2.83335ZM10.5 9.4585L18.1667 4.66683V2.75016L10.5 7.54183L2.83335 2.75016V4.66683L10.5 9.4585Z" fill="black"/>
</svg>
