<svg width="49" height="49" viewBox="0 0 49 49" fill="none" xmlns="http://www.w3.org/2000/svg">
<path d="M49 24.5C49 38.031 38.031 49 24.5 49C10.969 49 0 38.031 0 24.5C0 10.969 10.969 0 24.5 0C38.031 0 49 10.969 49 24.5Z" fill="black"/>
<path d="M32.8016 16.6373C30.4309 14.6439 26.7682 14.9434 24.5 17.2525C22.2318 14.9434 18.5691 14.6398 16.1984 16.6373C13.1141 19.2336 13.5652 23.4664 15.7637 25.71L22.9578 33.0395C23.368 33.4578 23.9176 33.6916 24.5 33.6916C25.0865 33.6916 25.632 33.4619 26.0422 33.0436L33.2363 25.7141C35.4307 23.4705 35.89 19.2377 32.8016 16.6373ZM31.8336 24.3277L24.6395 31.6572C24.541 31.7557 24.459 31.7557 24.3605 31.6572L17.1664 24.3277C15.6693 22.802 15.3658 19.9145 17.4658 18.1467C19.0613 16.8055 21.5223 17.0064 23.0645 18.5773L24.5 20.0416L25.9355 18.5773C27.4859 16.9982 29.9469 16.8055 31.5342 18.1426C33.6301 19.9104 33.3184 22.8143 31.8336 24.3277Z" fill="white"/>
</svg>
